<svg height="26" width="25" xmlns="http://www.w3.org/2000/svg"><linearGradient id="a" x1="91.536%" x2="-37.559%" y1="4.839%" y2="71.968%"><stop offset="0" stop-color="#00a0ff"/><stop offset=".007" stop-color="#00a1ff"/><stop offset=".26" stop-color="#00beff"/><stop offset=".512" stop-color="#00d2ff"/><stop offset=".76" stop-color="#00dfff"/><stop offset="1" stop-color="#00e3ff"/></linearGradient><linearGradient id="b" x1="107.728%" x2="-130.665%" y1="49.428%" y2="49.428%"><stop offset="0" stop-color="#ffe000"/><stop offset=".409" stop-color="#ffbd00"/><stop offset=".775" stop-color="orange"/><stop offset="1" stop-color="#ff9c00"/></linearGradient><linearGradient id="c" x1="86.389%" x2="-49.888%" y1="17.815%" y2="194.393%"><stop offset="0" stop-color="#ff3a44"/><stop offset="1" stop-color="#c31162"/></linearGradient><linearGradient id="d" x1="-18.579%" x2="42.275%" y1="-54.527%" y2="24.69%"><stop offset="0" stop-color="#32a071"/><stop offset=".069" stop-color="#2da771"/><stop offset=".476" stop-color="#15cf74"/><stop offset=".801" stop-color="#06e775"/><stop offset="1" stop-color="#00f076"/></linearGradient><g fill="none"><path d="M1.4.5c-.3.3-.5.8-.5 1.4V24c0 .6.2 1.1.5 1.4l.1.1 12.4-12.4v-.2z" fill="url(#a)"/><path d="M18 17.3l-4.1-4.1V12.9L18 8.8l.1.1 4.9 2.8c1.4.8 1.4 2.1 0 2.9z" fill="url(#b)"/><path d="M18.1 17.2L13.9 13 1.4 25.5c.5.5 1.2.5 2.1.1z" fill="url(#c)"/><path d="M18.1 8.8L3.5.5C2.6 0 1.9.1 1.4.6L13.9 13z" fill="url(#d)"/><g fill="#000"><path d="M18 17.1L3.5 25.3c-.8.5-1.5.4-2 0l-.1.1.1.1c.5.4 1.2.5 2 0z" opacity=".2"/><path d="M1.4 25.3c-.3-.3-.4-.8-.4-1.4v.1c0 .6.2 1.1.5 1.4v-.1z" opacity=".12"/></g><path d="M23 14.3l-5 2.8.1.1 4.9-2.8c.7-.4 1-.9 1-1.4 0 .5-.4.9-1 1.3z" fill="#000" opacity=".12"/><path d="M3.5.6L23 11.7c.6.4 1 .8 1 1.3 0-.5-.3-1-1-1.4L3.5.5C2.1-.3 1 .4 1 2v.1C1 .5 2.1-.2 3.5.6z" fill="#fff" opacity=".25"/></g></svg>